<svg xmlns="http://www.w3.org/2000/svg" xmlns:xlink="http://www.w3.org/1999/xlink" version="1.1" x="0px" y="0px" viewBox="0 0 1024 1280" style="enable-background:new 0 0 1024 1024;" xml:space="preserve"><g><polygon points="981.3,525 879,525 879,953 620,953 620,644 403,644 403,953 146,953 146,525 42.8,525 511.8,71.7    691,244.5 691,160 791,160 791,341.3  "/><g><path d="M981.3,504.6c-29.8,0-59.7,0-89.5,0c-4.3,0-8.5,0-12.8,0c-10.8,0-20,9.2-20,20c0,14.2,0,28.4,0,42.7    c0,34,0,68,0,102c0,41.3,0,82.6,0,123.8c0,35.6,0,71.1,0,106.7c0,17.3-0.7,34.8,0,52.1c0,0.2,0,0.5,0,0.7c6.7-6.7,13.3-13.3,20-20    c-29.2,0-58.5,0-87.7,0c-46.4,0-92.8,0-139.2,0c-10.7,0-21.4,0-32,0c6.7,6.7,13.3,13.3,20,20c0-34.8,0-69.6,0-104.4    c0-55.5,0-110.9,0-166.4c0-12.7,0-25.5,0-38.2c0-10.8-9.2-20-20-20c-24.4,0-48.8,0-73.1,0c-39,0-78.1,0-117.1,0    c-8.9,0-17.8,0-26.7,0c-10.8,0-20,9.2-20,20c0,34.8,0,69.6,0,104.4c0,55.5,0,110.9,0,166.4c0,12.7,0,25.5,0,38.2    c6.7-6.7,13.3-13.3,20-20c-29.1,0-58.1,0-87.2,0c-46,0-91.9,0-137.9,0c-10.6,0-21.3,0-31.9,0c6.7,6.7,13.3,13.3,20,20    c0-14.2,0-28.4,0-42.7c0-34,0-68,0-102c0-41.3,0-82.6,0-123.8c0-35.6,0-71.1,0-106.7c0-17.4,0.5-34.8,0-52.1c0-0.2,0-0.5,0-0.7    c0-10.8-9.2-20-20-20c-30.2,0-60.3,0-90.5,0c-4.2,0-8.5,0-12.7,0c4.7,11.4,9.4,22.8,14.1,34.1c15.6-15.1,31.2-30.2,46.8-45.2    c37.3-36.1,74.7-72.1,112-108.2c45.3-43.7,90.5-87.5,135.8-131.2c39-37.7,78-75.3,117-113c18.8-18.2,38.5-35.9,56.7-54.7    c0.2-0.3,0.5-0.5,0.8-0.7c-9.4,0-18.9,0-28.3,0c20.2,19.5,40.4,39,60.6,58.5c32.2,31.1,64.3,62.2,96.5,93.2    c7.4,7.1,14.7,14.2,22.1,21.3c12.4,12,34.1,3.4,34.1-14.1c0-28.3,0-56.6,0-85c-6.7,6.7-13.3,13.3-20,20c29.2,0,58.4,0,87.6,0    c4.1,0,8.3,0,12.4,0c-6.7-6.7-13.3-13.3-20-20c0,28.6,0,57.3,0,85.9c0,31.7-0.9,63.5,0,95.2c0.3,11.2,7.8,16.7,15,23.6    c10.4,10.1,20.9,20.1,31.3,30.2c30.2,29.1,60.4,58.1,90.6,87.2c19.5,18.7,38.6,37.8,58.4,56.2c0.3,0.3,0.6,0.6,0.9,0.9    c7.5,7.3,20.9,8.1,28.3,0c7.2-7.9,8.1-20.5,0-28.3c-21.5-20.7-42.9-41.3-64.4-62c-34.2-32.9-68.3-65.8-102.5-98.7    c-7.8-7.5-15.6-15-23.4-22.5c2,4.7,3.9,9.4,5.9,14.1c0-20.5,0-40.9,0-61.4c0-32.6,0-65.3,0-97.9c0-7.5,0-15,0-22.5    c0-10.8-9.2-20-20-20c-29.2,0-58.4,0-87.6,0c-4.1,0-8.3,0-12.4,0c-10.8,0-20,9.2-20,20c0,28.3,0,56.6,0,85    c11.4-4.7,22.8-9.4,34.1-14.1c-20.2-19.5-40.4-39-60.6-58.5c-32.2-31.1-64.3-62.2-96.5-93.2c-7.4-7.1-14.7-14.2-22.1-21.3    c-7.9-7.6-20.4-7.6-28.3,0c-15.6,15.1-31.2,30.2-46.8,45.2c-37.3,36.1-74.7,72.1-112,108.2c-45.3,43.7-90.5,87.5-135.8,131.2    c-39,37.7-78,75.3-117,113c-18.9,18.2-38.4,35.9-56.7,54.7c-0.2,0.3-0.5,0.5-0.8,0.7c-12.5,12.1-3,34.1,14.1,34.1    c30.2,0,60.3,0,90.5,0c4.2,0,8.5,0,12.7,0c-6.7-6.7-13.3-13.3-20-20c0,14.2,0,28.4,0,42.7c0,34,0,68,0,102c0,41.3,0,82.6,0,123.8    c0,35.6,0,71.1,0,106.7c0,17.4-0.5,34.8,0,52.1c0,0.2,0,0.5,0,0.7c0,10.8,9.2,20,20,20c29.1,0,58.1,0,87.2,0c46,0,91.9,0,137.9,0    c10.6,0,21.3,0,31.9,0c10.8,0,20-9.2,20-20c0-34.8,0-69.6,0-104.4c0-55.5,0-110.9,0-166.4c0-12.7,0-25.5,0-38.2    c-6.7,6.7-13.3,13.3-20,20c24.4,0,48.8,0,73.1,0c39,0,78.1,0,117.1,0c8.9,0,17.8,0,26.7,0c-6.7-6.7-13.3-13.3-20-20    c0,34.8,0,69.6,0,104.4c0,55.5,0,110.9,0,166.4c0,12.7,0,25.5,0,38.2c0,10.8,9.2,20,20,20c29.2,0,58.5,0,87.7,0    c46.4,0,92.8,0,139.2,0c10.7,0,21.4,0,32,0c10.8,0,20-9.2,20-20c0-14.2,0-28.4,0-42.7c0-34,0-68,0-102c0-41.3,0-82.6,0-123.8    c0-35.6,0-71.1,0-106.7c0-17.3,0.7-34.8,0-52.1c0-0.2,0-0.5,0-0.7c-6.7,6.7-13.3,13.3-20,20c29.8,0,59.7,0,89.5,0    c4.3,0,8.5,0,12.8,0c10.5,0,20.5-9.2,20-20C1000.8,513.7,992.5,504.6,981.3,504.6z"/></g></g><text x="0" y="1039" fill="#000000" font-size="5px" font-weight="bold" font-family="'Helvetica Neue', Helvetica, Arial-Unicode, Arial, Sans-serif">Created by shashank singh</text><text x="0" y="1044" fill="#000000" font-size="5px" font-weight="bold" font-family="'Helvetica Neue', Helvetica, Arial-Unicode, Arial, Sans-serif">from the Noun Project</text></svg>